# xmcd
#
# Track frame offsets: 
#        150
#        20683
#        40425
#        66921
#        84570
#        106348
#        121979
#        143190
#        172747
#        187508
#        204441
#        230537
#
# Disc length: 3363 seconds
#
# Revision: 0
# Processed by: cddbd v1.5.2PL0 Copyright (c) Steve Scherf et al.
# Submitted via: ExactAudioCopy v0.99pb3
#
DISCID=9a0d210c
DTITLE=Suspects - Hot File
DYEAR=1900
DGENRE=Rhythmic Soul
TTITLE0=Never Get a Good Thing
TTITLE1=Hot File
TTITLE2=Must Be Love
TTITLE3=Heartbeat
TTITLE4=Work Release
TTITLE5=FALDNWM Blues
TTITLE6=And You Know It
TTITLE7=Wonderful Terrible Thing
TTITLE8=Pardon Me
TTITLE9=Lost In Space
TTITLE10=Hwy 61
TTITLE11=Pinebox Blues
EXTD=
EXTT0=
EXTT1=
EXTT2=
EXTT3=
EXTT4=
EXTT5=
EXTT6=
EXTT7=
EXTT8=
EXTT9=
EXTT10=
EXTT11=
PLAYORDER=
